<svg width="119px" height="119px" viewBox="0 0 119 119" version="1.1" xmlns="http://www.w3.org/2000/svg" xmlns:xlink="http://www.w3.org/1999/xlink"> <title>브런치</title> <g id="Symbols" stroke="none" stroke-width="1" fill="none" fill-rule="evenodd"> <g id="Group-3" transform="translate(-0.000515, 0.000000)"> <path d="M59.456372,118.912744 C26.6209882,118.912744 0,92.2943301 0,59.456372 C0,26.6184139 26.6209882,0 59.456372,0 C92.2943301,0 118.912744,26.6184139 118.912744,59.456372 C118.912744,92.2943301 92.2943301,118.912744 59.456372,118.912744 Z" id="Fill-1" fill="#231F20"></path> <path d="M62.373137,62.9456385 L62.6103136,62.8265162 C64.0490117,62.1066036 65.4251576,61.7078031 66.4937558,61.7078031 C67.3512407,61.7078031 68.0080376,61.9589956 68.4485086,62.4484326 C68.9437126,63.00261 69.1287625,63.8416448 68.9984457,64.9396411 C68.1878749,71.7477357 61.3853352,78.1855156 55.4090044,81.2826937 C48.5100303,84.86154 40.8161234,85.6513722 39.2705656,85.7782633 C39.1819501,85.7808529 39.0933346,85.7860321 38.9942938,85.7886217 C39.1246107,85.578863 49.2528364,69.3601118 62.373137,62.9456385 M78.141476,24.2153746 C75.6732748,32.245767 69.5874779,37.3965088 64.9273473,40.6982664 C63.6945498,41.5735559 64.9117092,42.2287282 64.9455916,43.4665635 C64.9846867,45.0099734 62.1854807,46.9262876 57.9163006,51.5591066 C66.0689229,35.8971224 78.141476,24.2153746 78.141476,24.2153746 M37.9543654,87.8836193 C37.967397,87.8810297 38.2514878,87.8758504 38.7519045,87.8473647 L38.7545108,87.8473647 C38.7545108,87.8473647 38.7571172,87.8447751 38.7571172,87.8447751 C41.2670197,87.6997567 49.3206011,86.966896 57.6452416,83.3440263 C62.0238878,81.4380705 74.4899978,74.2467131 74.4899978,64.5770952 C74.4899978,60.9179709 72.2459416,58.8203837 68.4276579,58.8203837 C62.6155263,58.8203837 55.5862353,63.4739197 47.7307355,71.5871797 C47.5326539,71.8409618 47.1651604,71.6622785 48.1764192,70.0282322 C50.138991,66.8533657 54.5906146,58.7634122 64.3304961,49.2336335 C70.0253425,43.6633742 67.1244894,41.532122 67.1244894,41.532122 C67.1244894,41.532122 72.8766752,38.9062537 77.205801,33.3075086 C79.7965,29.9565484 83.0856973,23.3892878 81.652212,21.5972751 C80.4637223,20.1134264 78.0346162,20.8618248 72.6004035,25.6215349 C65.8421716,31.5362128 55.6018734,48.7700926 50.0399502,59.1026516 C48.6664105,61.6534212 40.6727749,75.3913223 34.9857475,85.1412183 C33.9797014,84.7916204 32.8928588,84.2659288 31.7799529,83.4760966 L31.0840609,84.6932151 C31.6574551,85.2862366 32.7234469,86.0734792 34.0683168,86.7105242 C31.3160249,91.4313902 29.2856884,94.898883 29.1631906,95.1112314 C28.7826654,95.7612244 29.1345209,96.0409027 29.5541411,95.8570401 C30.0806212,95.6265645 30.5810379,95.4116266 31.0527849,95.2096367 C34.8841003,93.5626423 35.6868521,92.8763947 35.9605175,91.291551 C36.4661469,88.3937732 37.951759,87.8836193 37.9543654,87.8836193" id="Fill-4" fill="#FEFEFE"></path> </g> </g> </svg>